<?xml version="1.0" encoding="UTF-8"?>
<svg width="18px" height="16px" viewBox="0 0 18 16" version="1.1" xmlns="http://www.w3.org/2000/svg" xmlns:xlink="http://www.w3.org/1999/xlink">
    <title>icon-favorite</title>
    <g id="Symbols" stroke="none" stroke-width="1" fill="none" fill-rule="evenodd">
        <g id="02__assets-/-icons-/-icon-favorite" transform="translate(-3.000000, -4.000000)" fill="#A3A7C2">
            <path d="M12.6533948,5.86645399 L11.999,6.53 L11.3460194,5.86645399 C9.55135648,4.04451534 6.63755994,4.04451534 4.84289698,5.86645399 C3.05236767,7.68419618 3.05236767,10.6291773 4.84289698,12.4469195 L11.9997071,19.7125004 L19.1565172,12.4469195 C20.9478562,10.6292433 20.9478562,7.6841301 19.1564315,5.86636703 C17.3618543,4.04451534 14.4480577,4.04451534 12.6533948,5.86645399 Z M18.5895508,6.72459531 C19.8501432,8.16131632 19.8016618,10.3676419 18.4441835,11.7450785 L11.999,18.288 L5.55531637,11.7451655 C4.14822788,10.3166918 4.14822788,7.9966817 5.55531637,6.56820796 C6.95827121,5.14393068 9.23064521,5.14393068 10.6336001,6.56820796 L11.9997071,7.95507742 L13.3658142,6.56820796 C14.768769,5.14393068 17.041143,5.14393068 18.4440978,6.56820796 L18.5895508,6.72459531 Z" id="icon-favorite"></path>
        </g>
    </g>
</svg>